<svg width="60" height="60" viewBox="0 0 60 60" fill="none" xmlns="http://www.w3.org/2000/svg">
<g id="Other Icons">
<g id="Union">
<path d="M31.8541 18.1925C31.8541 17.009 30.8947 16.0496 29.7112 16.0496C28.5278 16.0496 27.5684 17.009 27.5684 18.1925V27.8353L17.9255 27.8353C16.7421 27.8353 15.7827 28.7947 15.7827 29.9782C15.7827 31.1616 16.7421 32.121 17.9255 32.121L27.5684 32.121V41.7639C27.5684 42.9473 28.5278 43.9067 29.7112 43.9067C30.8947 43.9067 31.8541 42.9473 31.8541 41.7639V32.121H41.497C42.6804 32.121 43.6398 31.1616 43.6398 29.9782C43.6398 28.7947 42.6804 27.8353 41.497 27.8353H31.8541V18.1925Z" fill="black" fill-opacity="0.39"/>
<path fill-rule="evenodd" clip-rule="evenodd" d="M6.42859 19.2859C6.42859 12.185 12.1849 6.42871 19.2857 6.42871H40.7143C47.8151 6.42871 53.5714 12.1851 53.5714 19.2859V40.7144C53.5714 47.8152 47.8151 53.5716 40.7143 53.5716H19.2857C12.1849 53.5716 6.42859 47.8152 6.42859 40.7144V19.2859ZM19.2857 10.7144H40.7143C45.4482 10.7144 49.2857 14.552 49.2857 19.2859V40.7144C49.2857 45.4483 45.4482 49.2859 40.7143 49.2859H19.2857C14.5519 49.2859 10.7143 45.4483 10.7143 40.7144V19.2859C10.7143 14.552 14.5519 10.7144 19.2857 10.7144Z" fill="black" fill-opacity="0.39"/>
</g>
</g>
</svg>
