<svg width="30" height="30" viewBox="0 0 30 30" fill="none" xmlns="http://www.w3.org/2000/svg">
<g id="Post Icons">
<path id="path134 (Stroke)" fill-rule="evenodd" clip-rule="evenodd" d="M22.9121 20.5657L23.7488 23.7083L20.6641 22.8431L19.8774 23.3061C18.4387 24.1528 16.7782 24.6428 15.0002 24.6428C9.67437 24.6428 5.35715 20.3256 5.35715 14.9996C5.35715 9.67427 9.67429 5.35707 15.0002 5.35707C20.326 5.35707 24.6429 9.67422 24.6429 14.9996C24.6429 16.7467 24.1716 18.3802 23.3538 19.7993L22.9121 20.5657ZM20.9643 25.1529C19.213 26.1836 17.1794 26.7856 15.0002 26.7856C8.49088 26.7856 3.21429 21.5091 3.21429 14.9996C3.21429 8.49074 8.49088 3.21421 15.0002 3.21421C21.5094 3.21421 26.7858 8.49074 26.7858 14.9996C26.7858 17.139 26.2072 19.1396 25.2104 20.8692L26.3026 24.9713C26.5161 25.773 25.7767 26.5026 24.9779 26.2786L20.9643 25.1529Z" fill="black"/>
</g>
</svg>
