<svg width="28" height="28" viewBox="0 0 28 28" fill="none" xmlns="http://www.w3.org/2000/svg">
<g id="Post Icons">
<path id="Union" fill-rule="evenodd" clip-rule="evenodd" d="M2.98636 9.22921C0.784018 9.96614 0.704809 13.0521 2.86647 13.901L10.7442 16.9948C10.8729 17.0453 10.9747 17.1471 11.0252 17.2758L14.119 25.1536C14.9679 27.3152 18.0539 27.236 18.7908 25.0337L25.1562 6.01039C25.8072 4.06504 23.955 2.21284 22.0096 2.86378L2.98636 9.22921ZM3.59351 12.0497C3.16119 11.8799 3.17702 11.2627 3.61749 11.1154L21.1371 5.25307L11.31 15.0802L3.59351 12.0497ZM12.8094 16.3936C12.8335 16.4444 12.8559 16.4961 12.8765 16.5488L15.9703 24.4265C16.1401 24.8588 16.7573 24.843 16.9047 24.4025L22.9917 6.21133L12.8094 16.3936Z" fill="black"/>
</g>
</svg>
